<mxfile host="app.diagrams.net" modified="2021-06-23T17:33:27.229Z" agent="5.0 (Windows)" etag="I3onksmqCxGS7KHhIv9E" version="14.8.0" type="github" pages="2">
  <diagram id="C5RBs43oDa-KdzZeNtuy" name="Page-1">
    <mxGraphModel dx="2235" dy="806" grid="1" gridSize="10" guides="1" tooltips="1" connect="1" arrows="1" fold="1" page="1" pageScale="1" pageWidth="827" pageHeight="1169" math="0" shadow="0">
      <root>
        <mxCell id="WIyWlLk6GJQsqaUBKTNV-0" />
        <mxCell id="WIyWlLk6GJQsqaUBKTNV-1" parent="WIyWlLk6GJQsqaUBKTNV-0" />
        <mxCell id="IRIdJR8dMExV3zNaQ7-A-1" value="&lt;font style=&quot;font-size: 14px&quot;&gt;Component /Functional Level Access Control &lt;br&gt;&lt;/font&gt;" style="rounded=1;whiteSpace=wrap;html=1;" vertex="1" parent="WIyWlLk6GJQsqaUBKTNV-1">
          <mxGeometry x="210" y="292.5" width="170" height="85" as="geometry" />
        </mxCell>
        <mxCell id="yZtk5NLVc4AZtp5_VuZM-9" style="edgeStyle=orthogonalEdgeStyle;rounded=0;orthogonalLoop=1;jettySize=auto;html=1;exitX=1;exitY=0.5;exitDx=0;exitDy=0;entryX=-0.018;entryY=0.353;entryDx=0;entryDy=0;entryPerimeter=0;" edge="1" parent="WIyWlLk6GJQsqaUBKTNV-1" source="IRIdJR8dMExV3zNaQ7-A-2" target="IRIdJR8dMExV3zNaQ7-A-1">
          <mxGeometry relative="1" as="geometry" />
        </mxCell>
        <mxCell id="IRIdJR8dMExV3zNaQ7-A-2" value="&lt;font style=&quot;font-size: 14px&quot;&gt;Router Level Access Control &lt;br&gt;&lt;/font&gt;" style="rounded=1;whiteSpace=wrap;html=1;" vertex="1" parent="WIyWlLk6GJQsqaUBKTNV-1">
          <mxGeometry x="-20" y="292.5" width="150" height="60" as="geometry" />
        </mxCell>
        <mxCell id="yZtk5NLVc4AZtp5_VuZM-7" style="edgeStyle=orthogonalEdgeStyle;rounded=0;orthogonalLoop=1;jettySize=auto;html=1;entryX=0;entryY=0.5;entryDx=0;entryDy=0;" edge="1" parent="WIyWlLk6GJQsqaUBKTNV-1">
          <mxGeometry relative="1" as="geometry">
            <mxPoint x="-350" y="322.5" as="sourcePoint" />
            <mxPoint x="-290" y="322.5" as="targetPoint" />
          </mxGeometry>
        </mxCell>
        <mxCell id="IRIdJR8dMExV3zNaQ7-A-3" value="&lt;div&gt;&lt;font style=&quot;font-size: 18px&quot;&gt;From : BackEnd / Keycloak&lt;br&gt;&lt;/font&gt;&lt;/div&gt;&lt;div&gt;&lt;font size=&quot;3&quot;&gt;Data : Permissions Encoded in vue token &lt;br&gt;&lt;/font&gt;&lt;/div&gt;" style="rounded=1;whiteSpace=wrap;html=1;" vertex="1" parent="WIyWlLk6GJQsqaUBKTNV-1">
          <mxGeometry x="-670" y="292.5" width="320" height="65" as="geometry" />
        </mxCell>
        <mxCell id="yZtk5NLVc4AZtp5_VuZM-8" style="edgeStyle=orthogonalEdgeStyle;rounded=0;orthogonalLoop=1;jettySize=auto;html=1;entryX=0;entryY=0.5;entryDx=0;entryDy=0;" edge="1" parent="WIyWlLk6GJQsqaUBKTNV-1" target="IRIdJR8dMExV3zNaQ7-A-2">
          <mxGeometry relative="1" as="geometry">
            <mxPoint x="-130" y="322.5" as="sourcePoint" />
          </mxGeometry>
        </mxCell>
        <mxCell id="yZtk5NLVc4AZtp5_VuZM-1" value="&lt;div&gt;&lt;font size=&quot;3&quot;&gt;User VUEX&lt;br&gt;&lt;/font&gt;&lt;/div&gt;&lt;div&gt;&lt;font size=&quot;3&quot;&gt;Permissions : [] &lt;/font&gt;&lt;/div&gt;" style="rhombus;whiteSpace=wrap;html=1;" vertex="1" parent="WIyWlLk6GJQsqaUBKTNV-1">
          <mxGeometry x="-290" y="230" width="160" height="190" as="geometry" />
        </mxCell>
        <mxCell id="yZtk5NLVc4AZtp5_VuZM-4" value="&lt;font style=&quot;font-size: 24px&quot;&gt;Logic 1 : Handing the ACCESS management USING FrontEnd &lt;/font&gt;" style="rounded=0;whiteSpace=wrap;html=1;" vertex="1" parent="WIyWlLk6GJQsqaUBKTNV-1">
          <mxGeometry x="-595" width="695" height="40" as="geometry" />
        </mxCell>
        <mxCell id="yZtk5NLVc4AZtp5_VuZM-5" value="1st Level of Access Control" style="rounded=0;whiteSpace=wrap;html=1;" vertex="1" parent="WIyWlLk6GJQsqaUBKTNV-1">
          <mxGeometry x="-30" y="220" width="170" height="60" as="geometry" />
        </mxCell>
        <mxCell id="yZtk5NLVc4AZtp5_VuZM-6" value="2nd Level of Access Control" style="rounded=0;whiteSpace=wrap;html=1;" vertex="1" parent="WIyWlLk6GJQsqaUBKTNV-1">
          <mxGeometry x="210" y="220" width="170" height="50" as="geometry" />
        </mxCell>
        <mxCell id="yZtk5NLVc4AZtp5_VuZM-10" value="&lt;font style=&quot;font-size: 18px&quot;&gt;Logic has been scraped since the PERMISSIONS might get leaked using local Storage &lt;/font&gt;" style="rounded=1;whiteSpace=wrap;html=1;" vertex="1" parent="WIyWlLk6GJQsqaUBKTNV-1">
          <mxGeometry x="-595" y="50" width="695" height="60" as="geometry" />
        </mxCell>
        <mxCell id="yZtk5NLVc4AZtp5_VuZM-11" value="&lt;font style=&quot;font-size: 24px&quot;&gt;&lt;font style=&quot;font-size: 18px&quot;&gt;For Managing access control in Vuejs&lt;/font&gt; &lt;br&gt;&lt;/font&gt;" style="rounded=0;whiteSpace=wrap;html=1;" vertex="1" parent="WIyWlLk6GJQsqaUBKTNV-1">
          <mxGeometry x="-590" y="130" width="690" height="30" as="geometry" />
        </mxCell>
        <mxCell id="yZtk5NLVc4AZtp5_VuZM-14" value="&lt;font style=&quot;font-size: 14px&quot;&gt;Component /Functional Level Access Control &lt;br&gt;&lt;/font&gt;" style="rounded=1;whiteSpace=wrap;html=1;" vertex="1" parent="WIyWlLk6GJQsqaUBKTNV-1">
          <mxGeometry x="244" y="842.5" width="170" height="85" as="geometry" />
        </mxCell>
        <mxCell id="yZtk5NLVc4AZtp5_VuZM-15" style="edgeStyle=orthogonalEdgeStyle;rounded=0;orthogonalLoop=1;jettySize=auto;html=1;exitX=1;exitY=0.5;exitDx=0;exitDy=0;entryX=-0.018;entryY=0.353;entryDx=0;entryDy=0;entryPerimeter=0;" edge="1" parent="WIyWlLk6GJQsqaUBKTNV-1" source="yZtk5NLVc4AZtp5_VuZM-16" target="yZtk5NLVc4AZtp5_VuZM-14">
          <mxGeometry relative="1" as="geometry" />
        </mxCell>
        <mxCell id="yZtk5NLVc4AZtp5_VuZM-16" value="&lt;font style=&quot;font-size: 14px&quot;&gt;Router Level Access Control &lt;br&gt;&lt;/font&gt;" style="rounded=1;whiteSpace=wrap;html=1;" vertex="1" parent="WIyWlLk6GJQsqaUBKTNV-1">
          <mxGeometry x="14" y="842.5" width="150" height="60" as="geometry" />
        </mxCell>
        <mxCell id="yZtk5NLVc4AZtp5_VuZM-18" style="edgeStyle=orthogonalEdgeStyle;rounded=0;orthogonalLoop=1;jettySize=auto;html=1;entryX=0;entryY=0.5;entryDx=0;entryDy=0;" edge="1" parent="WIyWlLk6GJQsqaUBKTNV-1" target="yZtk5NLVc4AZtp5_VuZM-16">
          <mxGeometry relative="1" as="geometry">
            <mxPoint x="-96" y="872.5" as="sourcePoint" />
          </mxGeometry>
        </mxCell>
        <mxCell id="yZtk5NLVc4AZtp5_VuZM-20" value="&lt;font style=&quot;font-size: 24px&quot;&gt;Logic 2 : Handing the ACCESS management USING BackEnd &lt;/font&gt;" style="rounded=0;whiteSpace=wrap;html=1;" vertex="1" parent="WIyWlLk6GJQsqaUBKTNV-1">
          <mxGeometry x="-562" y="510" width="721" height="40" as="geometry" />
        </mxCell>
        <mxCell id="yZtk5NLVc4AZtp5_VuZM-21" value="1st Level of Access Control" style="rounded=0;whiteSpace=wrap;html=1;" vertex="1" parent="WIyWlLk6GJQsqaUBKTNV-1">
          <mxGeometry x="4" y="770" width="170" height="60" as="geometry" />
        </mxCell>
        <mxCell id="yZtk5NLVc4AZtp5_VuZM-22" value="2nd Level of Access Control" style="rounded=0;whiteSpace=wrap;html=1;" vertex="1" parent="WIyWlLk6GJQsqaUBKTNV-1">
          <mxGeometry x="244" y="770" width="170" height="50" as="geometry" />
        </mxCell>
        <mxCell id="yZtk5NLVc4AZtp5_VuZM-24" value="&lt;div&gt;&lt;font style=&quot;font-size: 18px&quot;&gt;&lt;i&gt;&lt;b&gt;Reason &lt;/b&gt;&lt;/i&gt;: 1) This logic is secure &lt;br&gt;&lt;/font&gt;&lt;/div&gt;&lt;div&gt;&lt;font style=&quot;font-size: 18px&quot;&gt;2) Other native platforms can easily be targeted without code rewriting&lt;/font&gt;&lt;/div&gt;" style="rounded=0;whiteSpace=wrap;html=1;" vertex="1" parent="WIyWlLk6GJQsqaUBKTNV-1">
          <mxGeometry x="-561" y="585" width="720" height="80" as="geometry" />
        </mxCell>
        <mxCell id="yZtk5NLVc4AZtp5_VuZM-27" style="edgeStyle=orthogonalEdgeStyle;rounded=0;orthogonalLoop=1;jettySize=auto;html=1;entryX=0.116;entryY=0.426;entryDx=0;entryDy=0;entryPerimeter=0;" edge="1" parent="WIyWlLk6GJQsqaUBKTNV-1" source="yZtk5NLVc4AZtp5_VuZM-25" target="yZtk5NLVc4AZtp5_VuZM-26">
          <mxGeometry relative="1" as="geometry" />
        </mxCell>
        <mxCell id="yZtk5NLVc4AZtp5_VuZM-25" value="&lt;div&gt;&lt;font style=&quot;font-size: 18px&quot;&gt;From : BackEnd&lt;/font&gt;&lt;/div&gt;&lt;div&gt;&lt;font style=&quot;font-size: 18px&quot;&gt;&lt;br&gt;&lt;/font&gt;&lt;/div&gt;&lt;div&gt;&lt;font style=&quot;font-size: 18px&quot;&gt;=1st Step --- Stores the permissions for EACH license&lt;/font&gt;&lt;/div&gt;&lt;div&gt;&lt;font style=&quot;font-size: 18px&quot;&gt;2nd Step ---- Modify Response based on the Permissions&lt;br&gt;&lt;/font&gt;&lt;/div&gt;" style="rounded=1;whiteSpace=wrap;html=1;" vertex="1" parent="WIyWlLk6GJQsqaUBKTNV-1">
          <mxGeometry x="-820" y="790" width="440" height="147.5" as="geometry" />
        </mxCell>
        <mxCell id="yZtk5NLVc4AZtp5_VuZM-26" value="&lt;div&gt;&lt;font style=&quot;font-size: 18px&quot;&gt;TO FrontEnd&lt;/font&gt;&lt;/div&gt;&lt;div&gt;&lt;font style=&quot;font-size: 18px&quot;&gt;&amp;nbsp;Fetch the permissions &lt;/font&gt;&lt;br&gt;&lt;/div&gt;" style="rounded=1;whiteSpace=wrap;html=1;" vertex="1" parent="WIyWlLk6GJQsqaUBKTNV-1">
          <mxGeometry x="-329.75" y="835" width="257.5" height="67.5" as="geometry" />
        </mxCell>
      </root>
    </mxGraphModel>
  </diagram>
  <diagram id="NHEZYNE7Am43ReLBD22P" name="Page-2">
    <mxGraphModel dx="1197" dy="685" grid="1" gridSize="10" guides="1" tooltips="1" connect="1" arrows="1" fold="1" page="1" pageScale="1" pageWidth="850" pageHeight="1100" math="0" shadow="0">
      <root>
        <mxCell id="5r-3A6N-YBD38yDBaiS--0" />
        <mxCell id="5r-3A6N-YBD38yDBaiS--1" parent="5r-3A6N-YBD38yDBaiS--0" />
      </root>
    </mxGraphModel>
  </diagram>
</mxfile>
